# xmcd
#
# Track frame offsets: 
#        150
#        15887
#        32463
#        55681
#        69987
#        90842
#        111785
#        129114
#        153542
#        173657
#
# Disc length: 2640 seconds
#
# Revision: 0
# Processed by: cddbd v1.5.2PL0 Copyright (c) Steve Scherf et al.
# Submitted via: ExactAudioCopy v1.0b4
#
DISCID=610a4e0a
DTITLE=Tonya Graves - Back To Blues
DYEAR=2015
DGENRE=Blues
TTITLE0=Thrill Is Gone
TTITLE1=Hound Dog
TTITLE2=May This Be Love
TTITLE3=Something’s got A Hold on Me
TTITLE4=If You Love Me Baby
TTITLE5=Don’t Let the Sun Catch You Cryin’
TTITLE6=Blues in the Night
TTITLE7=I Just Wanna Make Love to You
TTITLE8=Jolene
TTITLE9=Meaning of the Blues
EXTD=
EXTT0=
EXTT1=
EXTT2=
EXTT3=
EXTT4=
EXTT5=
EXTT6=
EXTT7=
EXTT8=
EXTT9=
PLAYORDER=
